<svg width="100%" viewBox="0 0 680 440" role="img" xmlns="http://www.w3.org/2000/svg">
<title>活気ある経営コンサルティングのイメージ</title>
<desc>ブランド青を基調に、上を指す3人のチーム、右肩上がりの棒グラフと上昇矢印、AIネットワークを描いたイラスト</desc>
<defs>
<marker id="ar" viewBox="0 0 10 10" refX="7" refY="5" markerWidth="5" markerHeight="5" orient="auto-start-reverse"><path d="M2 1L8 5L2 9" fill="none" stroke="#f5b301" stroke-width="2" stroke-linecap="round" stroke-linejoin="round"/></marker>
</defs>
<rect x="16" y="16" width="648" height="408" rx="24" fill="#eef5ff"/>
<circle cx="602" cy="74" r="64" fill="#dce9fb"/>
<circle cx="548" cy="52" r="26" fill="#cfe1fa"/>
<rect x="40" y="356" width="600" height="5" rx="2.5" fill="#c2d6ef"/>
<line x1="470" y1="70" x2="540" y2="48" stroke="#9cc4f3" stroke-width="2"/>
<line x1="540" y1="48" x2="602" y2="74" stroke="#9cc4f3" stroke-width="2"/>
<line x1="540" y1="48" x2="566" y2="96" stroke="#9cc4f3" stroke-width="2"/>
<line x1="566" y1="96" x2="602" y2="74" stroke="#9cc4f3" stroke-width="2"/>
<circle cx="470" cy="70" r="7" fill="#1f86ff"/>
<circle cx="540" cy="48" r="7" fill="#0a4ea3"/>
<circle cx="602" cy="74" r="7" fill="#1f86ff"/>
<circle cx="566" cy="96" r="7" fill="#2f74d0"/>
<rect x="486" y="20" width="44" height="24" rx="12" fill="#0a4ea3"/>
<text x="508" y="37" text-anchor="middle" font-family="sans-serif" font-size="14" font-weight="700" fill="#ffffff">AI</text>
<rect x="300" y="278" width="46" height="80" rx="6" fill="#9cc4f3"/>
<rect x="364" y="238" width="46" height="120" rx="6" fill="#5fa0e8"/>
<rect x="428" y="193" width="46" height="165" rx="6" fill="#2f7fdc"/>
<rect x="492" y="148" width="46" height="210" rx="6" fill="#1565c9"/>
<rect x="556" y="103" width="46" height="255" rx="6" fill="#0a4ea3"/>
<polyline points="323,300 387,258 451,213 515,168 579,120" fill="none" stroke="#f5b301" stroke-width="6" stroke-linecap="round" stroke-linejoin="round" marker-end="url(#ar)"/>
<circle cx="323" cy="300" r="5" fill="#ffffff" stroke="#f5b301" stroke-width="3"/>
<circle cx="387" cy="258" r="5" fill="#ffffff" stroke="#f5b301" stroke-width="3"/>
<circle cx="451" cy="213" r="5" fill="#ffffff" stroke="#f5b301" stroke-width="3"/>
<circle cx="515" cy="168" r="5" fill="#ffffff" stroke="#f5b301" stroke-width="3"/>
<circle cx="579" cy="120" r="5" fill="#ffffff" stroke="#f5b301" stroke-width="3"/>
<line x1="225" y1="150" x2="240" y2="132" stroke="#f5b301" stroke-width="4" stroke-linecap="round"/>
<line x1="246" y1="160" x2="266" y2="150" stroke="#f5b301" stroke-width="4" stroke-linecap="round"/>
<line x1="232" y1="172" x2="252" y2="172" stroke="#f5b301" stroke-width="4" stroke-linecap="round"/>
<rect x="72" y="240" width="46" height="120" rx="22" fill="#1f86ff"/>
<circle cx="95" cy="216" r="20" fill="#1f86ff"/>
<rect x="201" y="226" width="48" height="134" rx="23" fill="#2f74d0"/>
<circle cx="225" cy="201" r="21" fill="#2f74d0"/>
<rect x="132" y="198" width="56" height="162" rx="26" fill="#0a4ea3"/>
<line x1="180" y1="214" x2="214" y2="166" stroke="#0a4ea3" stroke-width="15" stroke-linecap="round"/>
<circle cx="160" cy="170" r="24" fill="#0a4ea3"/>
<circle cx="160" cy="248" r="9" fill="#ffd34d"/>
</svg>
