<svg width="100%" viewBox="0 0 680 258" role="img" xmlns="http://www.w3.org/2000/svg">
<title>創業者・矢部廣重から継承者・矢部大へ受け継がれる感動の経営</title>
<desc>左の創業者から右の継承者へ、金色の灯（感動セールスの哲学）が手渡されるイラスト</desc>
<rect x="16" y="16" width="648" height="230" rx="22" fill="#eef5ff"/>
<rect x="60" y="208" width="560" height="4" rx="2" fill="#c2d6ef"/>
<path d="M250 126 Q340 92 430 132" fill="none" stroke="#f5b301" stroke-width="2.5" stroke-dasharray="2 7" stroke-linecap="round"/>
<rect x="130" y="100" width="56" height="110" rx="27" fill="#0a4ea3"/>
<line x1="184" y1="120" x2="248" y2="128" stroke="#0a4ea3" stroke-width="15" stroke-linecap="round"/>
<circle cx="158" cy="78" r="22" fill="#0a4ea3"/>
<circle cx="158" cy="150" r="9" fill="#ffd34d"/>
<rect x="494" y="110" width="54" height="100" rx="26" fill="#1f86ff"/>
<line x1="494" y1="130" x2="432" y2="134" stroke="#1f86ff" stroke-width="15" stroke-linecap="round"/>
<circle cx="521" cy="88" r="21" fill="#1f86ff"/>
<g>
<circle cx="340" cy="128" r="17" fill="#ffd34d"/>
<path d="M340 104 C347 114 352 118 347 126 C344 121 340 122 340 116 C336 122 333 120 333 126 C328 118 333 114 340 104 Z" fill="#f5b301"/>
<line x1="310" y1="128" x2="300" y2="128" stroke="#ffd34d" stroke-width="3" stroke-linecap="round"/>
<line x1="370" y1="128" x2="380" y2="128" stroke="#ffd34d" stroke-width="3" stroke-linecap="round"/>
<line x1="340" y1="158" x2="340" y2="168" stroke="#ffd34d" stroke-width="3" stroke-linecap="round"/>
</g>
<text x="158" y="240" text-anchor="middle" font-family="sans-serif" font-size="15" font-weight="700" fill="#062f63">創業者・矢部廣重</text>
<text x="521" y="240" text-anchor="middle" font-family="sans-serif" font-size="15" font-weight="700" fill="#1565c9">継承者・矢部大</text>
</svg>
